<?xml version="1.0" encoding="UTF-8" standalone="no"?>
<svg width="500px" height="500px" viewBox="0 0 500 500" version="1.1" xmlns="http://www.w3.org/2000/svg" xmlns:xlink="http://www.w3.org/1999/xlink">
    <!-- Generator: Sketch 39.1 (31720) - http://www.bohemiancoding.com/sketch -->
    <title>SA</title>
    <desc>Created with Sketch.</desc>
    <defs></defs>
    <g id="NBA" stroke="none" stroke-width="1" fill="none" fill-rule="evenodd">
        <g id="SA">
            <g id="SASpurs_P_pms" transform="translate(57.000000, 5.000000)">
                <polyline id="Fill-1" fill="#FFFFFF" points="334.516537 0.3715666 304.869645 52.8907475 299.714739 94.8711213 246.826084 189.020966 177.562852 189.020966 229.27069 97.6735507 229.27069 0.3715666 175.579611 0.3715666 147.191498 52.4155984 142.363645 94.8711213 66.9805074 229.167264 79.6224828 260.820748 126.557611 260.820748 105.195458 314.90602 65.1712512 271.652247 69.869803 335.14072 0.577098522 338.046732 55.7161527 376.816048 16.4420788 435.292648 79.8230887 414.598004 105.934182 477.325288 125.87403 408.962736 196.559567 427.152394 150.916493 374.429849 207.07664 328.061948 149.107236 331.658827 211.845547 260.820748 294.392502 260.820748 385.815557 98.8766282 385.815557 0.3715666 334.516537 0.3715666"></polyline>
                <polygon id="Stroke-2" stroke="#FFFFFF" stroke-width="11.9360584" points="334.516537 0.3715666 304.869645 52.8907475 299.714739 94.8711213 246.826084 189.020966 177.562852 189.020966 229.27069 97.6735507 229.27069 0.3715666 175.579611 0.3715666 147.191498 52.4155984 142.363645 94.8711213 66.9805074 229.167264 79.6224828 260.820748 126.557611 260.820748 105.195458 314.90602 65.1712512 271.652247 69.869803 335.14072 0.577098522 338.046732 55.7161527 376.816048 16.4420788 435.292648 79.8230887 414.598004 105.934182 477.325288 125.87403 408.962736 196.559567 427.152394 150.916493 374.429849 207.07664 328.061948 149.107236 331.658827 211.845547 260.820748 294.392502 260.820748 385.815557 98.8766282 385.815557 0.3715666"></polygon>
                <polyline id="Fill-4" fill="#0F1216" points="334.516537 0.3715666 304.869645 52.8907475 299.714739 94.8711213 246.826084 189.020966 177.562852 189.020966 229.27069 97.6735507 229.27069 0.3715666 175.579611 0.3715666 147.191498 52.4155984 142.363645 94.8711213 66.9805074 229.167264 79.6224828 260.820748 126.557611 260.820748 105.195458 314.90602 65.1712512 271.652247 69.869803 335.14072 0.577098522 338.046732 55.7161527 376.816048 16.4420788 435.292648 79.8230887 414.598004 105.934182 477.325288 125.87403 408.962736 196.559567 427.152394 150.916493 374.429849 207.07664 328.061948 149.107236 331.658827 211.845547 260.820748 294.392502 260.820748 385.815557 98.8766282 385.815557 0.3715666 334.516537 0.3715666"></polyline>
                <polyline id="Fill-5" fill="#C1C9CA" points="323.419512 47.2184175 348.458172 47.2184175 365.890921 14.4777932 341.744054 14.4777932 323.419512 47.2184175"></polyline>
                <polygon id="Stroke-6" stroke="#0F1216" stroke-width="0.728878728" points="323.419512 47.2184175 348.458172 47.2184175 365.890921 14.4777932 341.744054 14.4777932"></polygon>
                <polyline id="Fill-7" fill="#C1C9CA" points="165.953379 47.2554791 192.934399 47.2003618 210.111399 14.4777932 184.128655 14.492998 165.953379 47.2554791"></polyline>
                <polygon id="Stroke-8" stroke="#0F1216" stroke-width="0.728878728" points="165.953379 47.2554791 192.934399 47.2003618 210.111399 14.4777932 184.128655 14.492998"></polygon>
                <polyline id="Fill-9" fill="#C1C9CA" points="159.554906 88.4604095 183.839631 88.5269304 186.1157 60.4266123 162.581108 60.4266123 159.554906 88.4604095"></polyline>
                <polygon id="Stroke-10" stroke="#0F1216" stroke-width="0.728878728" points="159.554906 88.4604095 183.839631 88.5269304 186.1157 60.4266123 162.581108 60.4266123"></polygon>
                <polyline id="Fill-11" fill="#C1C9CA" points="316.471512 88.4604095 340.797118 88.5269304 343.07699 60.4266123 319.53099 60.4266123 316.471512 88.4604095"></polyline>
                <polygon id="Stroke-12" stroke="#0F1216" stroke-width="0.728878728" points="316.471512 88.4604095 340.797118 88.5269304 343.07699 60.4266123 319.53099 60.4266123"></polygon>
                <path d="M96.0227291,381.389833 C89.8647931,381.389833 84.8924286,376.411221 84.8924286,370.268493 C84.8924286,364.105809 89.8647931,359.131948 96.0227291,359.131948 C102.179714,359.131948 107.163488,364.105809 107.163488,370.268493 C107.163488,376.411221 102.179714,381.389833 96.0227291,381.389833 L96.0227291,381.389833 Z M311.275724,105.279738 L256.437103,201.735006 L124.878606,201.735006 L179.709621,105.279738 L153.920828,105.279738 L87.7551034,222.032425 L161.151197,222.032425 L105.492089,346.435964 L82.4518818,320.874843 L83.7410837,351.005948 L46.6356453,353.05099 L76.5211724,374.073487 L55.2293744,405.748827 L89.5748177,394.548612 L103.713256,428.525575 L114.51365,391.494354 L152.832232,401.346095 L128.091153,372.781082 L158.518601,347.646644 L111.550197,349.706891 L198.0817,222.032425 L271.604241,222.032425 L336.6557,105.279738 L311.275724,105.279738 L311.275724,105.279738 Z" id="Fill-13" fill="#C1C9CA"></path>
                <path d="M96.0227291,381.389833 C89.8647931,381.389833 84.8924286,376.411221 84.8924286,370.268493 C84.8924286,364.105809 89.8647931,359.131948 96.0227291,359.131948 C102.179714,359.131948 107.163488,364.105809 107.163488,370.268493 C107.163488,376.411221 102.179714,381.389833 96.0227291,381.389833 L96.0227291,381.389833 Z M311.275724,105.279738 L256.437103,201.735006 L124.878606,201.735006 L179.709621,105.279738 L153.920828,105.279738 L87.7551034,222.032425 L161.151197,222.032425 L105.492089,346.435964 L82.4518818,320.874843 L83.7410837,351.005948 L46.6356453,353.05099 L76.5211724,374.073487 L55.2293744,405.748827 L89.5748177,394.548612 L103.713256,428.525575 L114.51365,391.494354 L152.832232,401.346095 L128.091153,372.781082 L158.518601,347.646644 L111.550197,349.706891 L198.0817,222.032425 L271.604241,222.032425 L336.6557,105.279738 L311.275724,105.279738 L311.275724,105.279738 Z" id="Stroke-14" stroke="#0F1216" stroke-width="0.728878728"></path>
            </g>
        </g>
    </g>
</svg>